<mxfile host="65bd71144e">
    <diagram id="UqQBaeQ3VG9OMJxZJ-G3" name="PÃ¡gina-1">
        <mxGraphModel dx="873" dy="649" grid="1" gridSize="10" guides="1" tooltips="1" connect="1" arrows="1" fold="1" page="1" pageScale="1" pageWidth="827" pageHeight="1169" math="0" shadow="0">
            <root>
                <mxCell id="0"/>
                <mxCell id="1" parent="0"/>
                <mxCell id="6" value="" style="edgeStyle=none;html=1;fontFamily=Comic Sans MS;fontSize=14;" edge="1" parent="1" source="2" target="4">
                    <mxGeometry relative="1" as="geometry"/>
                </mxCell>
                <mxCell id="2" value="Inicio" style="ellipse;whiteSpace=wrap;html=1;fontFamily=Comic Sans MS;fontSize=14;fillColor=#a20025;fontColor=#ffffff;strokeColor=#6F0000;" vertex="1" parent="1">
                    <mxGeometry x="200" y="100" width="120" height="80" as="geometry"/>
                </mxCell>
                <mxCell id="7" value="" style="edgeStyle=none;html=1;fontFamily=Comic Sans MS;fontSize=14;" edge="1" parent="1" source="4" target="5">
                    <mxGeometry relative="1" as="geometry"/>
                </mxCell>
                <mxCell id="4" value="n" style="shape=parallelogram;perimeter=parallelogramPerimeter;whiteSpace=wrap;html=1;fixedSize=1;fontFamily=Comic Sans MS;fontSize=14;fillColor=#d80073;fontColor=#ffffff;strokeColor=#A50040;" vertex="1" parent="1">
                    <mxGeometry x="200" y="210" width="120" height="60" as="geometry"/>
                </mxCell>
                <mxCell id="17" value="" style="edgeStyle=none;html=1;fontFamily=Comic Sans MS;fontSize=14;" edge="1" parent="1" source="5" target="8">
                    <mxGeometry relative="1" as="geometry"/>
                </mxCell>
                <mxCell id="5" value="suma, n0" style="rounded=0;whiteSpace=wrap;html=1;fontFamily=Comic Sans MS;fontSize=14;fillColor=#0050ef;fontColor=#ffffff;strokeColor=#001DBC;" vertex="1" parent="1">
                    <mxGeometry x="200" y="310" width="120" height="60" as="geometry"/>
                </mxCell>
                <mxCell id="10" style="edgeStyle=none;html=1;entryX=0.5;entryY=0;entryDx=0;entryDy=0;fontFamily=Comic Sans MS;fontSize=14;" edge="1" parent="1" source="8" target="9">
                    <mxGeometry relative="1" as="geometry">
                        <Array as="points">
                            <mxPoint x="374" y="450"/>
                        </Array>
                    </mxGeometry>
                </mxCell>
                <mxCell id="20" style="edgeStyle=none;html=1;entryX=0.5;entryY=0;entryDx=0;entryDy=0;fontFamily=Comic Sans MS;fontSize=14;" edge="1" parent="1" source="8" target="19">
                    <mxGeometry relative="1" as="geometry">
                        <Array as="points">
                            <mxPoint x="140" y="450"/>
                        </Array>
                    </mxGeometry>
                </mxCell>
                <mxCell id="8" value="n &amp;gt;= 0" style="rhombus;whiteSpace=wrap;html=1;fontFamily=Comic Sans MS;fontSize=14;fillColor=#008a00;fontColor=#ffffff;strokeColor=#005700;" vertex="1" parent="1">
                    <mxGeometry x="220" y="410" width="80" height="80" as="geometry"/>
                </mxCell>
                <mxCell id="13" value="" style="edgeStyle=none;html=1;fontFamily=Comic Sans MS;fontSize=14;" edge="1" parent="1" source="9" target="12">
                    <mxGeometry relative="1" as="geometry"/>
                </mxCell>
                <mxCell id="16" value="" style="edgeStyle=none;html=1;fontFamily=Comic Sans MS;fontSize=14;" edge="1" parent="1" source="9" target="15">
                    <mxGeometry relative="1" as="geometry"/>
                </mxCell>
                <mxCell id="9" value="n &amp;gt; 0" style="rhombus;whiteSpace=wrap;html=1;fontFamily=Comic Sans MS;fontSize=14;fillColor=#008a00;fontColor=#ffffff;strokeColor=#005700;" vertex="1" parent="1">
                    <mxGeometry x="334" y="500" width="80" height="80" as="geometry"/>
                </mxCell>
                <mxCell id="14" style="edgeStyle=none;html=1;entryX=0;entryY=0.5;entryDx=0;entryDy=0;fontFamily=Comic Sans MS;fontSize=14;" edge="1" parent="1" source="12" target="9">
                    <mxGeometry relative="1" as="geometry">
                        <Array as="points">
                            <mxPoint x="250" y="655"/>
                            <mxPoint x="250" y="540"/>
                        </Array>
                    </mxGeometry>
                </mxCell>
                <mxCell id="12" value="n1 = n %10&lt;br&gt;suma = suma n1&lt;br&gt;n = n//10" style="rounded=0;whiteSpace=wrap;html=1;fontFamily=Comic Sans MS;fontSize=14;fillColor=#0050ef;fontColor=#ffffff;strokeColor=#001DBC;" vertex="1" parent="1">
                    <mxGeometry x="318.5" y="620" width="111" height="70" as="geometry"/>
                </mxCell>
                <mxCell id="27" style="edgeStyle=none;html=1;fontFamily=Comic Sans MS;fontSize=14;" edge="1" parent="1" source="15" target="25">
                    <mxGeometry relative="1" as="geometry"/>
                </mxCell>
                <mxCell id="15" value="n0, suma" style="shape=document;whiteSpace=wrap;html=1;boundedLbl=1;fontFamily=Comic Sans MS;fontSize=14;fillColor=#d80073;fontColor=#ffffff;strokeColor=#A50040;" vertex="1" parent="1">
                    <mxGeometry x="460" y="500" width="120" height="80" as="geometry"/>
                </mxCell>
                <mxCell id="26" style="edgeStyle=none;html=1;entryX=0;entryY=0.5;entryDx=0;entryDy=0;fontFamily=Comic Sans MS;fontSize=14;" edge="1" parent="1" source="19" target="25">
                    <mxGeometry relative="1" as="geometry">
                        <Array as="points">
                            <mxPoint x="140" y="760"/>
                        </Array>
                    </mxGeometry>
                </mxCell>
                <mxCell id="19" value="print(&quot;Numero no valido&quot;)" style="shape=document;whiteSpace=wrap;html=1;boundedLbl=1;fontFamily=Comic Sans MS;fontSize=14;fillColor=#d80073;fontColor=#ffffff;strokeColor=#A50040;" vertex="1" parent="1">
                    <mxGeometry x="80" y="480" width="120" height="80" as="geometry"/>
                </mxCell>
                <mxCell id="21" value="V" style="text;html=1;strokeColor=none;fillColor=none;align=center;verticalAlign=middle;whiteSpace=wrap;rounded=0;fontFamily=Comic Sans MS;fontSize=14;" vertex="1" parent="1">
                    <mxGeometry x="300" y="410" width="60" height="30" as="geometry"/>
                </mxCell>
                <mxCell id="22" value="F" style="text;html=1;strokeColor=none;fillColor=none;align=center;verticalAlign=middle;whiteSpace=wrap;rounded=0;fontFamily=Comic Sans MS;fontSize=14;" vertex="1" parent="1">
                    <mxGeometry x="400" y="510" width="60" height="30" as="geometry"/>
                </mxCell>
                <mxCell id="23" value="F" style="text;html=1;strokeColor=none;fillColor=none;align=center;verticalAlign=middle;whiteSpace=wrap;rounded=0;fontFamily=Comic Sans MS;fontSize=14;" vertex="1" parent="1">
                    <mxGeometry x="150" y="420" width="60" height="30" as="geometry"/>
                </mxCell>
                <mxCell id="24" value="V" style="text;html=1;strokeColor=none;fillColor=none;align=center;verticalAlign=middle;whiteSpace=wrap;rounded=0;fontFamily=Comic Sans MS;fontSize=14;" vertex="1" parent="1">
                    <mxGeometry x="360" y="580" width="60" height="30" as="geometry"/>
                </mxCell>
                <mxCell id="25" value="Fin" style="ellipse;whiteSpace=wrap;html=1;fontFamily=Comic Sans MS;fontSize=14;fillColor=#a20025;fontColor=#ffffff;strokeColor=#6F0000;" vertex="1" parent="1">
                    <mxGeometry x="460" y="720" width="120" height="80" as="geometry"/>
                </mxCell>
            </root>
        </mxGraphModel>
    </diagram>
</mxfile>